<mxfile host="app.diagrams.net" modified="2023-06-01T12:35:18.473Z" agent="Mozilla/5.0 (Windows NT 10.0; Win64; x64) AppleWebKit/537.36 (KHTML, like Gecko) Chrome/113.0.0.0 Safari/537.36" etag="fvgWNB-9U9U6Wr4TmnAN" version="21.3.6" type="github">
  <diagram name="Page-1" id="2YBvvXClWsGukQMizWep">
    <mxGraphModel dx="3376" dy="765" grid="1" gridSize="10" guides="1" tooltips="1" connect="1" arrows="1" fold="1" page="1" pageScale="1" pageWidth="850" pageHeight="1100" math="0" shadow="0">
      <root>
        <mxCell id="0" />
        <mxCell id="1" parent="0" />
        <mxCell id="aM9ryv3xv72pqoxQDRHE-5" value="React App" style="shape=umlLifeline;perimeter=lifelinePerimeter;whiteSpace=wrap;html=1;container=0;dropTarget=0;collapsible=0;recursiveResize=0;outlineConnect=0;portConstraint=eastwest;newEdgeStyle={&quot;edgeStyle&quot;:&quot;elbowEdgeStyle&quot;,&quot;elbow&quot;:&quot;vertical&quot;,&quot;curved&quot;:0,&quot;rounded&quot;:0};" parent="1" vertex="1">
          <mxGeometry x="260" y="40" width="100" height="1030" as="geometry" />
        </mxCell>
        <mxCell id="aM9ryv3xv72pqoxQDRHE-6" value="" style="html=1;points=[];perimeter=orthogonalPerimeter;outlineConnect=0;targetShapes=umlLifeline;portConstraint=eastwest;newEdgeStyle={&quot;edgeStyle&quot;:&quot;elbowEdgeStyle&quot;,&quot;elbow&quot;:&quot;vertical&quot;,&quot;curved&quot;:0,&quot;rounded&quot;:0};" parent="aM9ryv3xv72pqoxQDRHE-5" vertex="1">
          <mxGeometry x="45" y="60" width="10" height="40" as="geometry" />
        </mxCell>
        <mxCell id="JT3RpLMraR_S-uEwoyPr-11" value="" style="html=1;points=[];perimeter=orthogonalPerimeter;outlineConnect=0;targetShapes=umlLifeline;portConstraint=eastwest;newEdgeStyle={&quot;edgeStyle&quot;:&quot;elbowEdgeStyle&quot;,&quot;elbow&quot;:&quot;vertical&quot;,&quot;curved&quot;:0,&quot;rounded&quot;:0};" vertex="1" parent="aM9ryv3xv72pqoxQDRHE-5">
          <mxGeometry x="45" y="150" width="10" height="20" as="geometry" />
        </mxCell>
        <mxCell id="aM9ryv3xv72pqoxQDRHE-7" value="Write email, password, username and submit" style="html=1;verticalAlign=bottom;endArrow=block;edgeStyle=elbowEdgeStyle;elbow=vertical;curved=0;rounded=0;" parent="aM9ryv3xv72pqoxQDRHE-5" edge="1">
          <mxGeometry x="0.4889" y="10" relative="1" as="geometry">
            <mxPoint x="40" y="150" as="sourcePoint" />
            <Array as="points">
              <mxPoint x="-200" y="150" />
              <mxPoint y="120" />
            </Array>
            <mxPoint x="40" y="150" as="targetPoint" />
            <mxPoint as="offset" />
          </mxGeometry>
        </mxCell>
        <mxCell id="JT3RpLMraR_S-uEwoyPr-29" value="" style="html=1;points=[];perimeter=orthogonalPerimeter;outlineConnect=0;targetShapes=umlLifeline;portConstraint=eastwest;newEdgeStyle={&quot;edgeStyle&quot;:&quot;elbowEdgeStyle&quot;,&quot;elbow&quot;:&quot;vertical&quot;,&quot;curved&quot;:0,&quot;rounded&quot;:0};" vertex="1" parent="aM9ryv3xv72pqoxQDRHE-5">
          <mxGeometry x="45" y="230" width="10" height="20" as="geometry" />
        </mxCell>
        <mxCell id="JT3RpLMraR_S-uEwoyPr-32" value="" style="html=1;points=[];perimeter=orthogonalPerimeter;outlineConnect=0;targetShapes=umlLifeline;portConstraint=eastwest;newEdgeStyle={&quot;edgeStyle&quot;:&quot;elbowEdgeStyle&quot;,&quot;elbow&quot;:&quot;vertical&quot;,&quot;curved&quot;:0,&quot;rounded&quot;:0};" vertex="1" parent="aM9ryv3xv72pqoxQDRHE-5">
          <mxGeometry x="45" y="350" width="10" height="40" as="geometry" />
        </mxCell>
        <mxCell id="JT3RpLMraR_S-uEwoyPr-36" value="" style="html=1;points=[];perimeter=orthogonalPerimeter;outlineConnect=0;targetShapes=umlLifeline;portConstraint=eastwest;newEdgeStyle={&quot;edgeStyle&quot;:&quot;elbowEdgeStyle&quot;,&quot;elbow&quot;:&quot;vertical&quot;,&quot;curved&quot;:0,&quot;rounded&quot;:0};" vertex="1" parent="aM9ryv3xv72pqoxQDRHE-5">
          <mxGeometry x="45" y="420" width="10" height="40" as="geometry" />
        </mxCell>
        <mxCell id="JT3RpLMraR_S-uEwoyPr-44" value="" style="html=1;points=[];perimeter=orthogonalPerimeter;outlineConnect=0;targetShapes=umlLifeline;portConstraint=eastwest;newEdgeStyle={&quot;edgeStyle&quot;:&quot;elbowEdgeStyle&quot;,&quot;elbow&quot;:&quot;vertical&quot;,&quot;curved&quot;:0,&quot;rounded&quot;:0};" vertex="1" parent="aM9ryv3xv72pqoxQDRHE-5">
          <mxGeometry x="45" y="540" width="10" height="20" as="geometry" />
        </mxCell>
        <mxCell id="JT3RpLMraR_S-uEwoyPr-75" value="" style="html=1;points=[];perimeter=orthogonalPerimeter;outlineConnect=0;targetShapes=umlLifeline;portConstraint=eastwest;newEdgeStyle={&quot;edgeStyle&quot;:&quot;elbowEdgeStyle&quot;,&quot;elbow&quot;:&quot;vertical&quot;,&quot;curved&quot;:0,&quot;rounded&quot;:0};" vertex="1" parent="aM9ryv3xv72pqoxQDRHE-5">
          <mxGeometry x="45" y="630" width="10" height="20" as="geometry" />
        </mxCell>
        <mxCell id="JT3RpLMraR_S-uEwoyPr-68" value="" style="html=1;points=[];perimeter=orthogonalPerimeter;outlineConnect=0;targetShapes=umlLifeline;portConstraint=eastwest;newEdgeStyle={&quot;edgeStyle&quot;:&quot;elbowEdgeStyle&quot;,&quot;elbow&quot;:&quot;vertical&quot;,&quot;curved&quot;:0,&quot;rounded&quot;:0};" vertex="1" parent="aM9ryv3xv72pqoxQDRHE-5">
          <mxGeometry x="45" y="290" width="10" height="20" as="geometry" />
        </mxCell>
        <mxCell id="JT3RpLMraR_S-uEwoyPr-1" value="API Rest" style="shape=umlLifeline;perimeter=lifelinePerimeter;whiteSpace=wrap;html=1;container=0;dropTarget=0;collapsible=0;recursiveResize=0;outlineConnect=0;portConstraint=eastwest;newEdgeStyle={&quot;edgeStyle&quot;:&quot;elbowEdgeStyle&quot;,&quot;elbow&quot;:&quot;vertical&quot;,&quot;curved&quot;:0,&quot;rounded&quot;:0};" vertex="1" parent="1">
          <mxGeometry x="468.75" y="40" width="162.5" height="1005" as="geometry" />
        </mxCell>
        <mxCell id="JT3RpLMraR_S-uEwoyPr-37" value="" style="html=1;points=[];perimeter=orthogonalPerimeter;outlineConnect=0;targetShapes=umlLifeline;portConstraint=eastwest;newEdgeStyle={&quot;edgeStyle&quot;:&quot;elbowEdgeStyle&quot;,&quot;elbow&quot;:&quot;vertical&quot;,&quot;curved&quot;:0,&quot;rounded&quot;:0};" vertex="1" parent="JT3RpLMraR_S-uEwoyPr-1">
          <mxGeometry x="76.25" y="455" width="10" height="135" as="geometry" />
        </mxCell>
        <mxCell id="JT3RpLMraR_S-uEwoyPr-10" value="&lt;font style=&quot;font-size: 10px;&quot;&gt;alt&lt;/font&gt;" style="shape=umlFrame;whiteSpace=wrap;html=1;pointerEvents=0;width=45;height=40;" vertex="1" parent="JT3RpLMraR_S-uEwoyPr-1">
          <mxGeometry x="-470" y="210" width="560" height="110" as="geometry" />
        </mxCell>
        <mxCell id="JT3RpLMraR_S-uEwoyPr-31" value="click on email&lt;br&gt;" style="html=1;verticalAlign=bottom;endArrow=block;edgeStyle=elbowEdgeStyle;elbow=vertical;curved=0;rounded=0;" edge="1" parent="JT3RpLMraR_S-uEwoyPr-1" source="JT3RpLMraR_S-uEwoyPr-18">
          <mxGeometry relative="1" as="geometry">
            <mxPoint x="-440" y="350" as="sourcePoint" />
            <Array as="points">
              <mxPoint x="-285" y="350" />
              <mxPoint x="-245" y="320" />
            </Array>
            <mxPoint x="-168.75" y="350" as="targetPoint" />
            <mxPoint as="offset" />
          </mxGeometry>
        </mxCell>
        <mxCell id="JT3RpLMraR_S-uEwoyPr-39" value="add rows" style="html=1;verticalAlign=bottom;endArrow=block;edgeStyle=elbowEdgeStyle;elbow=vertical;curved=0;rounded=0;" edge="1" parent="JT3RpLMraR_S-uEwoyPr-1">
          <mxGeometry x="0.1628" y="10" relative="1" as="geometry">
            <mxPoint x="91.25" y="590" as="sourcePoint" />
            <Array as="points">
              <mxPoint x="205" y="590" />
              <mxPoint x="245" y="560" />
            </Array>
            <mxPoint x="321.25" y="590" as="targetPoint" />
            <mxPoint as="offset" />
          </mxGeometry>
        </mxCell>
        <mxCell id="JT3RpLMraR_S-uEwoyPr-40" value="alt" style="shape=umlFrame;whiteSpace=wrap;html=1;pointerEvents=0;width=50;height=30;" vertex="1" parent="JT3RpLMraR_S-uEwoyPr-1">
          <mxGeometry x="-470" y="510" width="560" height="160" as="geometry" />
        </mxCell>
        <mxCell id="JT3RpLMraR_S-uEwoyPr-52" value="" style="html=1;points=[];perimeter=orthogonalPerimeter;outlineConnect=0;targetShapes=umlLifeline;portConstraint=eastwest;newEdgeStyle={&quot;edgeStyle&quot;:&quot;elbowEdgeStyle&quot;,&quot;elbow&quot;:&quot;vertical&quot;,&quot;curved&quot;:0,&quot;rounded&quot;:0};" vertex="1" parent="JT3RpLMraR_S-uEwoyPr-1">
          <mxGeometry x="76.25" y="210" width="10" height="80" as="geometry" />
        </mxCell>
        <mxCell id="JT3RpLMraR_S-uEwoyPr-3" value="Data Base" style="shape=umlLifeline;perimeter=lifelinePerimeter;whiteSpace=wrap;html=1;container=0;dropTarget=0;collapsible=0;recursiveResize=0;outlineConnect=0;portConstraint=eastwest;newEdgeStyle={&quot;edgeStyle&quot;:&quot;elbowEdgeStyle&quot;,&quot;elbow&quot;:&quot;vertical&quot;,&quot;curved&quot;:0,&quot;rounded&quot;:0};" vertex="1" parent="1">
          <mxGeometry x="760" y="40" width="90" height="1050" as="geometry" />
        </mxCell>
        <mxCell id="JT3RpLMraR_S-uEwoyPr-57" value="" style="html=1;points=[];perimeter=orthogonalPerimeter;outlineConnect=0;targetShapes=umlLifeline;portConstraint=eastwest;newEdgeStyle={&quot;edgeStyle&quot;:&quot;elbowEdgeStyle&quot;,&quot;elbow&quot;:&quot;vertical&quot;,&quot;curved&quot;:0,&quot;rounded&quot;:0};" vertex="1" parent="JT3RpLMraR_S-uEwoyPr-3">
          <mxGeometry x="40" y="187.5" width="10" height="22.5" as="geometry" />
        </mxCell>
        <mxCell id="JT3RpLMraR_S-uEwoyPr-4" value="" style="html=1;points=[];perimeter=orthogonalPerimeter;outlineConnect=0;targetShapes=umlLifeline;portConstraint=eastwest;newEdgeStyle={&quot;edgeStyle&quot;:&quot;elbowEdgeStyle&quot;,&quot;elbow&quot;:&quot;vertical&quot;,&quot;curved&quot;:0,&quot;rounded&quot;:0};" vertex="1" parent="JT3RpLMraR_S-uEwoyPr-3">
          <mxGeometry x="40" y="590" width="10" height="40" as="geometry" />
        </mxCell>
        <mxCell id="JT3RpLMraR_S-uEwoyPr-8" value="Register" style="html=1;verticalAlign=bottom;endArrow=block;edgeStyle=elbowEdgeStyle;elbow=vertical;curved=0;rounded=0;" edge="1" parent="1" source="JT3RpLMraR_S-uEwoyPr-18">
          <mxGeometry x="-0.0204" y="10" relative="1" as="geometry">
            <mxPoint x="75" y="100" as="sourcePoint" />
            <Array as="points">
              <mxPoint x="215" y="100" />
              <mxPoint x="255" y="70" />
            </Array>
            <mxPoint x="300" y="100" as="targetPoint" />
            <mxPoint as="offset" />
          </mxGeometry>
        </mxCell>
        <mxCell id="JT3RpLMraR_S-uEwoyPr-9" value="" style="html=1;verticalAlign=bottom;endArrow=open;dashed=1;endSize=8;edgeStyle=elbowEdgeStyle;elbow=vertical;curved=0;rounded=0;" edge="1" parent="1" target="JT3RpLMraR_S-uEwoyPr-18">
          <mxGeometry relative="1" as="geometry">
            <mxPoint x="69.5" y="135" as="targetPoint" />
            <Array as="points">
              <mxPoint x="220" y="140" />
              <mxPoint x="185" y="135" />
            </Array>
            <mxPoint x="300" y="140" as="sourcePoint" />
            <mxPoint as="offset" />
          </mxGeometry>
        </mxCell>
        <mxCell id="JT3RpLMraR_S-uEwoyPr-95" value="Sign up page" style="edgeLabel;html=1;align=center;verticalAlign=middle;resizable=0;points=[];" vertex="1" connectable="0" parent="JT3RpLMraR_S-uEwoyPr-9">
          <mxGeometry x="0.0333" y="-2" relative="1" as="geometry">
            <mxPoint as="offset" />
          </mxGeometry>
        </mxCell>
        <mxCell id="JT3RpLMraR_S-uEwoyPr-13" value="handleSignup" style="html=1;verticalAlign=bottom;endArrow=block;edgeStyle=elbowEdgeStyle;elbow=vertical;curved=0;rounded=0;" edge="1" parent="1">
          <mxGeometry x="0.4947" y="10" width="80" relative="1" as="geometry">
            <mxPoint x="540" y="210" as="sourcePoint" />
            <mxPoint x="540" y="210" as="targetPoint" />
            <Array as="points">
              <mxPoint x="320" y="210" />
              <mxPoint x="470" y="180" />
              <mxPoint x="410" y="230" />
              <mxPoint x="440" y="230" />
              <mxPoint x="400" y="230" />
              <mxPoint x="140" y="254" />
              <mxPoint x="320" y="230" />
              <mxPoint x="410" y="230" />
            </Array>
            <mxPoint as="offset" />
          </mxGeometry>
        </mxCell>
        <mxCell id="JT3RpLMraR_S-uEwoyPr-16" value="Visitor&lt;br&gt;" style="shape=umlActor;verticalLabelPosition=bottom;verticalAlign=top;html=1;" vertex="1" parent="1">
          <mxGeometry x="40" y="10" width="30" height="40" as="geometry" />
        </mxCell>
        <mxCell id="JT3RpLMraR_S-uEwoyPr-18" value="" style="html=1;points=[];perimeter=orthogonalPerimeter;outlineConnect=0;targetShapes=umlLifeline;portConstraint=eastwest;newEdgeStyle={&quot;edgeStyle&quot;:&quot;elbowEdgeStyle&quot;,&quot;elbow&quot;:&quot;vertical&quot;,&quot;curved&quot;:0,&quot;rounded&quot;:0};" vertex="1" parent="1">
          <mxGeometry x="50" y="80" width="10" height="760" as="geometry" />
        </mxCell>
        <mxCell id="JT3RpLMraR_S-uEwoyPr-2" value="" style="html=1;points=[];perimeter=orthogonalPerimeter;outlineConnect=0;targetShapes=umlLifeline;portConstraint=eastwest;newEdgeStyle={&quot;edgeStyle&quot;:&quot;elbowEdgeStyle&quot;,&quot;elbow&quot;:&quot;vertical&quot;,&quot;curved&quot;:0,&quot;rounded&quot;:0};" vertex="1" parent="1">
          <mxGeometry x="545" y="210" width="10" height="20" as="geometry" />
        </mxCell>
        <mxCell id="JT3RpLMraR_S-uEwoyPr-56" value="user exist ?" style="html=1;verticalAlign=bottom;endArrow=block;edgeStyle=elbowEdgeStyle;elbow=vertical;curved=0;rounded=0;" edge="1" parent="1">
          <mxGeometry x="0.4947" y="10" width="80" relative="1" as="geometry">
            <mxPoint x="780" y="230" as="sourcePoint" />
            <mxPoint x="790" y="230" as="targetPoint" />
            <Array as="points">
              <mxPoint x="560" y="230" />
              <mxPoint x="750" y="200" />
              <mxPoint x="690" y="250" />
              <mxPoint x="720" y="250" />
              <mxPoint x="680" y="250" />
              <mxPoint x="420" y="274" />
              <mxPoint x="600" y="250" />
              <mxPoint x="690" y="250" />
            </Array>
            <mxPoint as="offset" />
          </mxGeometry>
        </mxCell>
        <mxCell id="JT3RpLMraR_S-uEwoyPr-38" value="createAccount decoded token" style="html=1;verticalAlign=bottom;endArrow=block;edgeStyle=elbowEdgeStyle;elbow=vertical;curved=0;rounded=0;" edge="1" parent="1" source="aM9ryv3xv72pqoxQDRHE-5">
          <mxGeometry x="0.0042" y="10" relative="1" as="geometry">
            <mxPoint x="330" y="510" as="sourcePoint" />
            <Array as="points">
              <mxPoint x="428.75" y="500" />
              <mxPoint x="468.75" y="470" />
            </Array>
            <mxPoint x="540" y="500" as="targetPoint" />
            <mxPoint as="offset" />
          </mxGeometry>
        </mxCell>
        <mxCell id="JT3RpLMraR_S-uEwoyPr-35" value="click on the validation button&lt;br&gt;" style="html=1;verticalAlign=bottom;endArrow=block;edgeStyle=elbowEdgeStyle;elbow=vertical;curved=0;rounded=0;" edge="1" parent="1" source="JT3RpLMraR_S-uEwoyPr-18">
          <mxGeometry x="-0.0833" relative="1" as="geometry">
            <mxPoint x="28.75" y="460" as="sourcePoint" />
            <Array as="points">
              <mxPoint x="183.75" y="460" />
              <mxPoint x="223.75" y="430" />
            </Array>
            <mxPoint x="300" y="460" as="targetPoint" />
            <mxPoint as="offset" />
          </mxGeometry>
        </mxCell>
        <mxCell id="JT3RpLMraR_S-uEwoyPr-41" value="" style="line;strokeWidth=1;fillColor=none;align=left;verticalAlign=middle;spacingTop=-1;spacingLeft=3;spacingRight=3;rotatable=0;labelPosition=right;points=[];portConstraint=eastwest;strokeColor=inherit;dashed=1;" vertex="1" parent="1">
          <mxGeometry x="-10" y="630" width="570" height="8" as="geometry" />
        </mxCell>
        <mxCell id="JT3RpLMraR_S-uEwoyPr-82" value="" style="html=1;verticalAlign=bottom;endArrow=open;dashed=1;endSize=8;edgeStyle=elbowEdgeStyle;elbow=vertical;curved=0;rounded=0;" edge="1" parent="1" source="JT3RpLMraR_S-uEwoyPr-57">
          <mxGeometry relative="1" as="geometry">
            <mxPoint x="560" y="250" as="targetPoint" />
            <Array as="points">
              <mxPoint x="720" y="250" />
              <mxPoint x="685" y="245" />
            </Array>
            <mxPoint x="790" y="260" as="sourcePoint" />
            <mxPoint as="offset" />
          </mxGeometry>
        </mxCell>
        <mxCell id="JT3RpLMraR_S-uEwoyPr-92" value="response" style="edgeLabel;html=1;align=center;verticalAlign=middle;resizable=0;points=[];" vertex="1" connectable="0" parent="JT3RpLMraR_S-uEwoyPr-82">
          <mxGeometry x="0.1" y="-2" relative="1" as="geometry">
            <mxPoint x="12" y="2" as="offset" />
          </mxGeometry>
        </mxCell>
        <mxCell id="JT3RpLMraR_S-uEwoyPr-84" value="" style="html=1;verticalAlign=bottom;endArrow=open;dashed=1;endSize=8;edgeStyle=elbowEdgeStyle;elbow=vertical;curved=0;rounded=0;" edge="1" parent="1">
          <mxGeometry relative="1" as="geometry">
            <mxPoint x="60" y="290" as="targetPoint" />
            <Array as="points">
              <mxPoint x="220" y="290" />
              <mxPoint x="185" y="285" />
            </Array>
            <mxPoint x="300" y="290" as="sourcePoint" />
            <mxPoint as="offset" />
          </mxGeometry>
        </mxCell>
        <mxCell id="JT3RpLMraR_S-uEwoyPr-94" value="Redirect to login page" style="edgeLabel;html=1;align=center;verticalAlign=middle;resizable=0;points=[];" vertex="1" connectable="0" parent="JT3RpLMraR_S-uEwoyPr-84">
          <mxGeometry x="0.05" relative="1" as="geometry">
            <mxPoint as="offset" />
          </mxGeometry>
        </mxCell>
        <mxCell id="JT3RpLMraR_S-uEwoyPr-22" value="" style="line;strokeWidth=1;fillColor=none;align=left;verticalAlign=middle;spacingTop=-1;spacingLeft=3;spacingRight=3;rotatable=0;labelPosition=right;points=[];portConstraint=eastwest;strokeColor=inherit;dashed=1;" vertex="1" parent="1">
          <mxGeometry y="301" width="560" height="8" as="geometry" />
        </mxCell>
        <mxCell id="JT3RpLMraR_S-uEwoyPr-15" value="" style="html=1;verticalAlign=bottom;endArrow=open;dashed=1;endSize=8;edgeStyle=elbowEdgeStyle;elbow=vertical;curved=0;rounded=0;" edge="1" parent="1" source="JT3RpLMraR_S-uEwoyPr-68" target="JT3RpLMraR_S-uEwoyPr-18">
          <mxGeometry x="0.0638" y="-10" relative="1" as="geometry">
            <mxPoint x="353.75" y="299.5" as="sourcePoint" />
            <mxPoint x="70" y="350" as="targetPoint" />
            <Array as="points">
              <mxPoint x="259.75" y="350" />
              <mxPoint x="359.75" y="340" />
              <mxPoint x="358.75" y="310" />
              <mxPoint x="258.75" y="330" />
              <mxPoint x="348.75" y="300" />
            </Array>
            <mxPoint as="offset" />
          </mxGeometry>
        </mxCell>
        <mxCell id="JT3RpLMraR_S-uEwoyPr-93" value="Verify email with token" style="edgeLabel;html=1;align=center;verticalAlign=middle;resizable=0;points=[];" vertex="1" connectable="0" parent="JT3RpLMraR_S-uEwoyPr-15">
          <mxGeometry x="0.0612" y="-1" relative="1" as="geometry">
            <mxPoint as="offset" />
          </mxGeometry>
        </mxCell>
        <mxCell id="JT3RpLMraR_S-uEwoyPr-85" value="" style="html=1;verticalAlign=bottom;endArrow=open;dashed=1;endSize=8;edgeStyle=elbowEdgeStyle;elbow=vertical;curved=0;rounded=0;" edge="1" parent="1">
          <mxGeometry relative="1" as="geometry">
            <mxPoint x="320" y="270" as="targetPoint" />
            <Array as="points">
              <mxPoint x="480" y="270" />
              <mxPoint x="445" y="265" />
            </Array>
            <mxPoint x="545" y="270" as="sourcePoint" />
            <mxPoint as="offset" />
          </mxGeometry>
        </mxCell>
        <mxCell id="JT3RpLMraR_S-uEwoyPr-91" value="User exist" style="edgeLabel;html=1;align=center;verticalAlign=middle;resizable=0;points=[];" vertex="1" connectable="0" parent="JT3RpLMraR_S-uEwoyPr-85">
          <mxGeometry x="0.0844" y="-2" relative="1" as="geometry">
            <mxPoint as="offset" />
          </mxGeometry>
        </mxCell>
        <mxCell id="JT3RpLMraR_S-uEwoyPr-87" value="" style="html=1;verticalAlign=bottom;endArrow=open;dashed=1;endSize=8;edgeStyle=elbowEdgeStyle;elbow=vertical;curved=0;rounded=0;" edge="1" parent="1">
          <mxGeometry relative="1" as="geometry">
            <mxPoint x="320" y="330" as="targetPoint" />
            <Array as="points">
              <mxPoint x="480" y="330" />
              <mxPoint x="445" y="325" />
            </Array>
            <mxPoint x="545" y="330" as="sourcePoint" />
            <mxPoint as="offset" />
          </mxGeometry>
        </mxCell>
        <mxCell id="JT3RpLMraR_S-uEwoyPr-90" value="User not exist" style="edgeLabel;html=1;align=center;verticalAlign=middle;resizable=0;points=[];" vertex="1" connectable="0" parent="JT3RpLMraR_S-uEwoyPr-87">
          <mxGeometry x="0.0933" y="1" relative="1" as="geometry">
            <mxPoint as="offset" />
          </mxGeometry>
        </mxCell>
        <mxCell id="JT3RpLMraR_S-uEwoyPr-88" value="" style="html=1;verticalAlign=bottom;endArrow=open;dashed=1;endSize=8;edgeStyle=elbowEdgeStyle;elbow=vertical;curved=0;rounded=0;" edge="1" parent="1">
          <mxGeometry relative="1" as="geometry">
            <mxPoint x="320" y="580" as="targetPoint" />
            <Array as="points">
              <mxPoint x="480" y="580" />
              <mxPoint x="445" y="575" />
            </Array>
            <mxPoint x="545" y="580" as="sourcePoint" />
            <mxPoint as="offset" />
          </mxGeometry>
        </mxCell>
        <mxCell id="JT3RpLMraR_S-uEwoyPr-89" value="Token no valid" style="edgeLabel;html=1;align=center;verticalAlign=middle;resizable=0;points=[];" vertex="1" connectable="0" parent="JT3RpLMraR_S-uEwoyPr-88">
          <mxGeometry x="0.12" y="-3" relative="1" as="geometry">
            <mxPoint as="offset" />
          </mxGeometry>
        </mxCell>
        <mxCell id="JT3RpLMraR_S-uEwoyPr-96" value="" style="html=1;verticalAlign=bottom;endArrow=open;dashed=1;endSize=8;edgeStyle=elbowEdgeStyle;elbow=vertical;curved=0;rounded=0;" edge="1" parent="1">
          <mxGeometry x="0.0638" y="-10" relative="1" as="geometry">
            <mxPoint x="305" y="429" as="sourcePoint" />
            <mxPoint x="60" y="429" as="targetPoint" />
            <Array as="points">
              <mxPoint x="259.75" y="429" />
              <mxPoint x="359.75" y="419" />
              <mxPoint x="358.75" y="389" />
              <mxPoint x="258.75" y="409" />
              <mxPoint x="348.75" y="379" />
            </Array>
            <mxPoint as="offset" />
          </mxGeometry>
        </mxCell>
        <mxCell id="JT3RpLMraR_S-uEwoyPr-97" value="Verify email page" style="edgeLabel;html=1;align=center;verticalAlign=middle;resizable=0;points=[];" vertex="1" connectable="0" parent="JT3RpLMraR_S-uEwoyPr-96">
          <mxGeometry x="0.0612" y="-1" relative="1" as="geometry">
            <mxPoint as="offset" />
          </mxGeometry>
        </mxCell>
        <mxCell id="JT3RpLMraR_S-uEwoyPr-100" value="" style="html=1;verticalAlign=bottom;endArrow=open;dashed=1;endSize=8;edgeStyle=elbowEdgeStyle;elbow=vertical;curved=0;rounded=0;" edge="1" parent="1" source="JT3RpLMraR_S-uEwoyPr-3">
          <mxGeometry relative="1" as="geometry">
            <mxPoint x="320" y="670" as="targetPoint" />
            <Array as="points">
              <mxPoint x="480" y="670" />
              <mxPoint x="445" y="665" />
            </Array>
            <mxPoint x="545" y="670" as="sourcePoint" />
            <mxPoint as="offset" />
          </mxGeometry>
        </mxCell>
        <mxCell id="JT3RpLMraR_S-uEwoyPr-101" value="Customer created" style="edgeLabel;html=1;align=center;verticalAlign=middle;resizable=0;points=[];" vertex="1" connectable="0" parent="JT3RpLMraR_S-uEwoyPr-100">
          <mxGeometry x="0.12" y="-3" relative="1" as="geometry">
            <mxPoint as="offset" />
          </mxGeometry>
        </mxCell>
        <mxCell id="JT3RpLMraR_S-uEwoyPr-102" value="" style="html=1;verticalAlign=bottom;endArrow=open;dashed=1;endSize=8;edgeStyle=elbowEdgeStyle;elbow=vertical;curved=0;rounded=0;" edge="1" parent="1">
          <mxGeometry x="0.0638" y="-10" relative="1" as="geometry">
            <mxPoint x="305" y="600" as="sourcePoint" />
            <mxPoint x="60" y="600" as="targetPoint" />
            <Array as="points">
              <mxPoint x="259.75" y="600" />
              <mxPoint x="359.75" y="590" />
              <mxPoint x="358.75" y="560" />
              <mxPoint x="258.75" y="580" />
              <mxPoint x="348.75" y="550" />
            </Array>
            <mxPoint as="offset" />
          </mxGeometry>
        </mxCell>
        <mxCell id="JT3RpLMraR_S-uEwoyPr-103" value="Restart registration" style="edgeLabel;html=1;align=center;verticalAlign=middle;resizable=0;points=[];" vertex="1" connectable="0" parent="JT3RpLMraR_S-uEwoyPr-102">
          <mxGeometry x="0.0612" y="-1" relative="1" as="geometry">
            <mxPoint as="offset" />
          </mxGeometry>
        </mxCell>
        <mxCell id="JT3RpLMraR_S-uEwoyPr-104" value="" style="html=1;verticalAlign=bottom;endArrow=open;dashed=1;endSize=8;edgeStyle=elbowEdgeStyle;elbow=vertical;curved=0;rounded=0;" edge="1" parent="1">
          <mxGeometry x="0.0638" y="-10" relative="1" as="geometry">
            <mxPoint x="305" y="690" as="sourcePoint" />
            <mxPoint x="60" y="690" as="targetPoint" />
            <Array as="points">
              <mxPoint x="259.75" y="690" />
              <mxPoint x="359.75" y="680" />
              <mxPoint x="358.75" y="650" />
              <mxPoint x="258.75" y="670" />
              <mxPoint x="348.75" y="640" />
            </Array>
            <mxPoint as="offset" />
          </mxGeometry>
        </mxCell>
        <mxCell id="JT3RpLMraR_S-uEwoyPr-105" value="Account validated, Redirect to login" style="edgeLabel;html=1;align=center;verticalAlign=middle;resizable=0;points=[];" vertex="1" connectable="0" parent="JT3RpLMraR_S-uEwoyPr-104">
          <mxGeometry x="0.0612" y="-1" relative="1" as="geometry">
            <mxPoint as="offset" />
          </mxGeometry>
        </mxCell>
      </root>
    </mxGraphModel>
  </diagram>
</mxfile>
